{
	"patcher" : 	{
		"fileversion" : 1,
		"appversion" : 		{
			"major" : 5,
			"minor" : 1,
			"revision" : 9
		}
,
		"rect" : [ 402.0, 268.0, 376.0, 356.0 ],
		"bgcolor" : [ 1.0, 1.0, 1.0, 1.0 ],
		"bglocked" : 0,
		"defrect" : [ 402.0, 268.0, 376.0, 356.0 ],
		"openrect" : [ 0.0, 0.0, 0.0, 0.0 ],
		"openinpresentation" : 0,
		"default_fontsize" : 14.0,
		"default_fontface" : 0,
		"default_fontname" : "Arial",
		"gridonopen" : 0,
		"gridsize" : [ 20.0, 20.0 ],
		"gridsnaponopen" : 0,
		"toolbarvisible" : 0,
		"boxanimatetime" : 200,
		"imprint" : 1,
		"enablehscroll" : 1,
		"enablevscroll" : 1,
		"devicewidth" : 0.0,
		"boxes" : [ 			{
				"box" : 				{
					"maxclass" : "comment",
					"text" : "ms",
					"frgb" : [ 0.0, 0.0, 0.0, 1.0 ],
					"patching_rect" : [ 293.0, 281.0, 33.0, 23.0 ],
					"numinlets" : 1,
					"fontname" : "Arial",
					"presentation" : 0,
					"numoutlets" : 0,
					"fontface" : 0,
					"background" : 0,
					"fontsize" : 14.0,
					"bgcolor" : [ 1.0, 1.0, 1.0, 0.0 ],
					"underline" : 0,
					"presentation_rect" : [ 0.0, 0.0, 0.0, 0.0 ],
					"textcolor" : [ 0.0, 0.0, 0.0, 1.0 ],
					"ignoreclick" : 1,
					"hidden" : 0,
					"id" : "obj-24"
				}

			}
, 			{
				"box" : 				{
					"maxclass" : "newobj",
					"text" : "loadmess \\\\",
					"patching_rect" : [ 232.0, 179.0, 82.0, 23.0 ],
					"numinlets" : 1,
					"fontname" : "Arial",
					"presentation" : 0,
					"numoutlets" : 1,
					"outlettype" : [ "" ],
					"fontface" : 0,
					"background" : 0,
					"fontsize" : 14.0,
					"color" : [ 0.8, 0.84, 0.71, 1.0 ],
					"bgcolor" : [ 1.0, 1.0, 1.0, 1.0 ],
					"presentation_rect" : [ 0.0, 0.0, 0.0, 0.0 ],
					"textcolor" : [ 0.0, 0.0, 0.0, 1.0 ],
					"ignoreclick" : 0,
					"hidden" : 1,
					"id" : "obj-22"
				}

			}
, 			{
				"box" : 				{
					"maxclass" : "message",
					"patching_rect" : [ 71.0, 227.0, 115.0, 21.0 ],
					"numinlets" : 2,
					"fontname" : "Arial",
					"presentation" : 0,
					"numoutlets" : 1,
					"bgcolor2" : [ 0.867, 0.867, 0.867, 1.0 ],
					"gradient" : 0,
					"outlettype" : [ "" ],
					"fontface" : 0,
					"background" : 0,
					"fontsize" : 14.0,
					"bgcolor" : [ 0.866667, 0.866667, 0.866667, 0.0 ],
					"presentation_rect" : [ 0.0, 0.0, 0.0, 0.0 ],
					"textcolor" : [ 0.0, 0.0, 0.0, 1.0 ],
					"ignoreclick" : 0,
					"hidden" : 0,
					"id" : "obj-21"
				}

			}
, 			{
				"box" : 				{
					"maxclass" : "number",
					"patching_rect" : [ 222.0, 281.0, 66.0, 23.0 ],
					"numinlets" : 1,
					"tricolor" : [ 0.75, 0.75, 0.75, 1.0 ],
					"fontname" : "Arial",
					"hbgcolor" : [ 0.0, 0.0, 0.0, 1.0 ],
					"presentation" : 0,
					"cantchange" : 0,
					"numoutlets" : 2,
					"htextcolor" : [ 1.0, 1.0, 1.0, 1.0 ],
					"outputonclick" : 0,
					"format" : 0,
					"outlettype" : [ "int", "bang" ],
					"fontface" : 0,
					"background" : 0,
					"bordercolor" : [ 0.5, 0.5, 0.5, 1.0 ],
					"fontsize" : 14.0,
					"mouseup" : 0,
					"maximum" : "<none>",
					"triscale" : 1.0,
					"bgcolor" : [ 1.0, 1.0, 1.0, 1.0 ],
					"presentation_rect" : [ 0.0, 0.0, 0.0, 0.0 ],
					"textcolor" : [ 0.0, 0.0, 0.0, 1.0 ],
					"ignoreclick" : 0,
					"minimum" : "<none>",
					"triangle" : 1,
					"htricolor" : [ 0.87, 0.82, 0.24, 1.0 ],
					"hidden" : 0,
					"id" : "obj-13"
				}

			}
, 			{
				"box" : 				{
					"maxclass" : "message",
					"text" : ";\rtoto stop",
					"linecount" : 2,
					"patching_rect" : [ 83.0, 95.0, 64.0, 37.0 ],
					"numinlets" : 2,
					"fontname" : "Arial",
					"presentation" : 0,
					"numoutlets" : 1,
					"bgcolor2" : [ 0.867, 0.867, 0.867, 1.0 ],
					"gradient" : 0,
					"outlettype" : [ "" ],
					"fontface" : 0,
					"background" : 0,
					"fontsize" : 14.0,
					"bgcolor" : [ 0.866667, 0.866667, 0.866667, 0.0 ],
					"presentation_rect" : [ 0.0, 0.0, 0.0, 0.0 ],
					"textcolor" : [ 0.0, 0.0, 0.0, 1.0 ],
					"ignoreclick" : 0,
					"hidden" : 0,
					"id" : "obj-11"
				}

			}
, 			{
				"box" : 				{
					"maxclass" : "message",
					"text" : ";\rtoto play",
					"linecount" : 2,
					"patching_rect" : [ 15.0, 95.0, 63.0, 37.0 ],
					"numinlets" : 2,
					"fontname" : "Arial",
					"presentation" : 0,
					"numoutlets" : 1,
					"bgcolor2" : [ 0.867, 0.867, 0.867, 1.0 ],
					"gradient" : 0,
					"outlettype" : [ "" ],
					"fontface" : 0,
					"background" : 0,
					"fontsize" : 14.0,
					"bgcolor" : [ 0.866667, 0.866667, 0.866667, 0.0 ],
					"presentation_rect" : [ 0.0, 0.0, 0.0, 0.0 ],
					"textcolor" : [ 0.0, 0.0, 0.0, 1.0 ],
					"ignoreclick" : 0,
					"hidden" : 0,
					"id" : "obj-10"
				}

			}
, 			{
				"box" : 				{
					"maxclass" : "newobj",
					"text" : "r toto",
					"patching_rect" : [ 174.0, 145.0, 42.0, 23.0 ],
					"numinlets" : 0,
					"fontname" : "Arial",
					"presentation" : 0,
					"numoutlets" : 1,
					"outlettype" : [ "" ],
					"fontface" : 0,
					"background" : 0,
					"fontsize" : 14.0,
					"color" : [ 0.501961, 0.717647, 0.764706, 1.0 ],
					"bgcolor" : [ 1.0, 1.0, 1.0, 1.0 ],
					"presentation_rect" : [ 0.0, 0.0, 0.0, 0.0 ],
					"textcolor" : [ 0.0, 0.0, 0.0, 1.0 ],
					"ignoreclick" : 0,
					"hidden" : 0,
					"id" : "obj-8"
				}

			}
, 			{
				"box" : 				{
					"maxclass" : "newobj",
					"text" : "t l",
					"patching_rect" : [ 146.0, 180.0, 21.0, 23.0 ],
					"numinlets" : 1,
					"fontname" : "Arial",
					"presentation" : 0,
					"numoutlets" : 1,
					"outlettype" : [ "" ],
					"fontface" : 0,
					"background" : 0,
					"fontsize" : 14.0,
					"color" : [ 0.8, 0.84, 0.71, 1.0 ],
					"bgcolor" : [ 1.0, 1.0, 1.0, 1.0 ],
					"presentation_rect" : [ 0.0, 0.0, 0.0, 0.0 ],
					"textcolor" : [ 0.0, 0.0, 0.0, 1.0 ],
					"ignoreclick" : 0,
					"hidden" : 0,
					"id" : "obj-27"
				}

			}
, 			{
				"box" : 				{
					"maxclass" : "newobj",
					"text" : "p time",
					"patching_rect" : [ 222.0, 246.0, 49.0, 23.0 ],
					"numinlets" : 1,
					"fontname" : "Arial",
					"presentation" : 0,
					"numoutlets" : 1,
					"outlettype" : [ "" ],
					"fontface" : 0,
					"background" : 0,
					"fontsize" : 14.0,
					"color" : [ 0.827451, 0.737255, 0.835294, 1.0 ],
					"bgcolor" : [ 1.0, 1.0, 1.0, 1.0 ],
					"presentation_rect" : [ 0.0, 0.0, 0.0, 0.0 ],
					"textcolor" : [ 0.0, 0.0, 0.0, 1.0 ],
					"ignoreclick" : 0,
					"hidden" : 0,
					"id" : "obj-20",
					"patcher" : 					{
						"fileversion" : 1,
						"appversion" : 						{
							"major" : 5,
							"minor" : 1,
							"revision" : 9
						}
,
						"rect" : [ 744.0, 123.0, 198.0, 327.0 ],
						"bglocked" : 0,
						"defrect" : [ 744.0, 123.0, 198.0, 327.0 ],
						"openrect" : [ 0.0, 0.0, 0.0, 0.0 ],
						"openinpresentation" : 0,
						"default_fontsize" : 14.0,
						"default_fontface" : 0,
						"default_fontname" : "Arial",
						"gridonopen" : 0,
						"gridsize" : [ 20.0, 20.0 ],
						"gridsnaponopen" : 0,
						"toolbarvisible" : 1,
						"boxanimatetime" : 200,
						"imprint" : 0,
						"enablehscroll" : 1,
						"enablevscroll" : 1,
						"devicewidth" : 0.0,
						"boxes" : [ 							{
								"box" : 								{
									"maxclass" : "newobj",
									"text" : "sel stop",
									"patching_rect" : [ 100.0, 60.0, 59.0, 23.0 ],
									"numinlets" : 1,
									"fontname" : "Arial",
									"numoutlets" : 2,
									"outlettype" : [ "bang", "" ],
									"fontsize" : 14.0,
									"id" : "obj-9"
								}

							}
, 							{
								"box" : 								{
									"maxclass" : "newobj",
									"text" : "r toto",
									"patching_rect" : [ 100.0, 20.0, 42.0, 23.0 ],
									"numinlets" : 0,
									"fontname" : "Arial",
									"numoutlets" : 1,
									"outlettype" : [ "" ],
									"fontsize" : 14.0,
									"color" : [ 0.501961, 0.717647, 0.764706, 1.0 ],
									"id" : "obj-4"
								}

							}
, 							{
								"box" : 								{
									"maxclass" : "newobj",
									"text" : "expr int($f1 + 0.5)",
									"patching_rect" : [ 20.0, 240.0, 121.0, 23.0 ],
									"numinlets" : 1,
									"fontname" : "Arial",
									"numoutlets" : 1,
									"outlettype" : [ "" ],
									"fontsize" : 14.0,
									"id" : "obj-3"
								}

							}
, 							{
								"box" : 								{
									"maxclass" : "outlet",
									"patching_rect" : [ 20.0, 280.0, 25.0, 25.0 ],
									"numinlets" : 1,
									"numoutlets" : 0,
									"id" : "obj-2",
									"comment" : ""
								}

							}
, 							{
								"box" : 								{
									"maxclass" : "inlet",
									"patching_rect" : [ 20.0, 20.0, 25.0, 25.0 ],
									"numinlets" : 0,
									"numoutlets" : 1,
									"outlettype" : [ "" ],
									"id" : "obj-19",
									"comment" : ""
								}

							}
, 							{
								"box" : 								{
									"maxclass" : "newobj",
									"text" : "- 0.",
									"patching_rect" : [ 20.0, 200.0, 44.5, 23.0 ],
									"numinlets" : 2,
									"fontname" : "Arial",
									"numoutlets" : 1,
									"outlettype" : [ "float" ],
									"fontsize" : 14.0,
									"id" : "obj-6"
								}

							}
, 							{
								"box" : 								{
									"maxclass" : "newobj",
									"text" : "cpuclock",
									"patching_rect" : [ 100.0, 140.0, 65.0, 23.0 ],
									"numinlets" : 1,
									"fontname" : "Arial",
									"numoutlets" : 1,
									"outlettype" : [ "float" ],
									"fontsize" : 14.0,
									"id" : "obj-5"
								}

							}
, 							{
								"box" : 								{
									"maxclass" : "newobj",
									"text" : "cpuclock",
									"patching_rect" : [ 20.0, 140.0, 65.0, 23.0 ],
									"numinlets" : 1,
									"fontname" : "Arial",
									"numoutlets" : 1,
									"outlettype" : [ "float" ],
									"fontsize" : 14.0,
									"id" : "obj-18"
								}

							}
, 							{
								"box" : 								{
									"maxclass" : "newobj",
									"text" : "onebang 1",
									"patching_rect" : [ 20.0, 100.0, 99.0, 23.0 ],
									"numinlets" : 2,
									"fontname" : "Arial",
									"numoutlets" : 2,
									"outlettype" : [ "bang", "bang" ],
									"fontsize" : 14.0,
									"id" : "obj-17"
								}

							}
 ],
						"lines" : [ 							{
								"patchline" : 								{
									"source" : [ "obj-17", 0 ],
									"destination" : [ "obj-18", 0 ],
									"hidden" : 0,
									"midpoints" : [  ]
								}

							}
, 							{
								"patchline" : 								{
									"source" : [ "obj-17", 1 ],
									"destination" : [ "obj-5", 0 ],
									"hidden" : 0,
									"midpoints" : [  ]
								}

							}
, 							{
								"patchline" : 								{
									"source" : [ "obj-19", 0 ],
									"destination" : [ "obj-17", 0 ],
									"hidden" : 0,
									"midpoints" : [  ]
								}

							}
, 							{
								"patchline" : 								{
									"source" : [ "obj-5", 0 ],
									"destination" : [ "obj-6", 0 ],
									"hidden" : 0,
									"midpoints" : [ 109.5, 178.0, 29.5, 178.0 ]
								}

							}
, 							{
								"patchline" : 								{
									"source" : [ "obj-18", 0 ],
									"destination" : [ "obj-6", 1 ],
									"hidden" : 0,
									"midpoints" : [  ]
								}

							}
, 							{
								"patchline" : 								{
									"source" : [ "obj-9", 0 ],
									"destination" : [ "obj-17", 1 ],
									"hidden" : 0,
									"midpoints" : [  ]
								}

							}
, 							{
								"patchline" : 								{
									"source" : [ "obj-3", 0 ],
									"destination" : [ "obj-2", 0 ],
									"hidden" : 0,
									"midpoints" : [  ]
								}

							}
, 							{
								"patchline" : 								{
									"source" : [ "obj-6", 0 ],
									"destination" : [ "obj-3", 0 ],
									"hidden" : 0,
									"midpoints" : [  ]
								}

							}
, 							{
								"patchline" : 								{
									"source" : [ "obj-4", 0 ],
									"destination" : [ "obj-9", 0 ],
									"hidden" : 0,
									"midpoints" : [  ]
								}

							}
 ]
					}
,
					"saved_object_attributes" : 					{
						"fontname" : "Arial",
						"default_fontface" : 0,
						"globalpatchername" : "",
						"default_fontname" : "Arial",
						"fontface" : 0,
						"fontsize" : 14.0,
						"default_fontsize" : 14.0
					}

				}

			}
, 			{
				"box" : 				{
					"maxclass" : "newobj",
					"text" : "loadbang",
					"patching_rect" : [ 230.0, 120.0, 68.0, 23.0 ],
					"numinlets" : 1,
					"fontname" : "Arial",
					"presentation" : 0,
					"numoutlets" : 1,
					"outlettype" : [ "bang" ],
					"fontface" : 0,
					"background" : 0,
					"fontsize" : 14.0,
					"color" : [ 0.8, 0.84, 0.71, 1.0 ],
					"bgcolor" : [ 1.0, 1.0, 1.0, 1.0 ],
					"presentation_rect" : [ 0.0, 0.0, 0.0, 0.0 ],
					"textcolor" : [ 0.0, 0.0, 0.0, 1.0 ],
					"ignoreclick" : 0,
					"hidden" : 1,
					"id" : "obj-2"
				}

			}
, 			{
				"box" : 				{
					"maxclass" : "message",
					"text" : "recall",
					"patching_rect" : [ 230.0, 151.0, 44.0, 21.0 ],
					"numinlets" : 2,
					"fontname" : "Arial",
					"presentation" : 0,
					"numoutlets" : 1,
					"bgcolor2" : [ 0.867, 0.867, 0.867, 1.0 ],
					"gradient" : 0,
					"outlettype" : [ "" ],
					"fontface" : 0,
					"background" : 0,
					"fontsize" : 14.0,
					"bgcolor" : [ 0.866667, 0.866667, 0.866667, 0.0 ],
					"presentation_rect" : [ 0.0, 0.0, 0.0, 0.0 ],
					"textcolor" : [ 0.0, 0.0, 0.0, 1.0 ],
					"ignoreclick" : 0,
					"hidden" : 1,
					"id" : "obj-15"
				}

			}
, 			{
				"box" : 				{
					"maxclass" : "comment",
					"text" : "December 28, 2012",
					"frgb" : [ 0.93, 0.93, 0.97, 1.0 ],
					"patching_rect" : [ 13.0, 45.0, 227.0, 23.0 ],
					"numinlets" : 1,
					"fontname" : "Arial",
					"presentation" : 0,
					"numoutlets" : 0,
					"fontface" : 0,
					"background" : 0,
					"fontsize" : 14.0,
					"bgcolor" : [ 1.0, 1.0, 1.0, 0.0 ],
					"underline" : 0,
					"presentation_rect" : [ 0.0, 0.0, 0.0, 0.0 ],
					"textcolor" : [ 0.93, 0.93, 0.97, 1.0 ],
					"ignoreclick" : 1,
					"hidden" : 0,
					"id" : "obj-4"
				}

			}
, 			{
				"box" : 				{
					"maxclass" : "newobj",
					"text" : "p",
					"patching_rect" : [ 174.0, 180.0, 41.0, 23.0 ],
					"numinlets" : 1,
					"fontname" : "Arial",
					"presentation" : 0,
					"numoutlets" : 1,
					"outlettype" : [ "" ],
					"fontface" : 0,
					"background" : 0,
					"fontsize" : 14.0,
					"color" : [ 0.827451, 0.737255, 0.835294, 1.0 ],
					"bgcolor" : [ 1.0, 1.0, 1.0, 1.0 ],
					"presentation_rect" : [ 0.0, 0.0, 0.0, 0.0 ],
					"textcolor" : [ 0.0, 0.0, 0.0, 1.0 ],
					"ignoreclick" : 0,
					"hidden" : 0,
					"id" : "obj-1",
					"patcher" : 					{
						"fileversion" : 1,
						"appversion" : 						{
							"major" : 5,
							"minor" : 1,
							"revision" : 9
						}
,
						"rect" : [ 605.0, 188.0, 390.0, 320.0 ],
						"bglocked" : 0,
						"defrect" : [ 605.0, 188.0, 390.0, 320.0 ],
						"openrect" : [ 0.0, 0.0, 0.0, 0.0 ],
						"openinpresentation" : 0,
						"default_fontsize" : 14.0,
						"default_fontface" : 0,
						"default_fontname" : "Arial",
						"gridonopen" : 0,
						"gridsize" : [ 20.0, 20.0 ],
						"gridsnaponopen" : 0,
						"toolbarvisible" : 1,
						"boxanimatetime" : 200,
						"imprint" : 0,
						"enablehscroll" : 1,
						"enablevscroll" : 1,
						"devicewidth" : 0.0,
						"boxes" : [ 							{
								"box" : 								{
									"maxclass" : "newobj",
									"text" : "p MIDI",
									"patching_rect" : [ 20.0, 280.0, 52.0, 23.0 ],
									"numinlets" : 1,
									"fontname" : "Arial",
									"numoutlets" : 0,
									"fontsize" : 14.0,
									"color" : [ 0.827451, 0.737255, 0.835294, 1.0 ],
									"id" : "obj-16",
									"patcher" : 									{
										"fileversion" : 1,
										"appversion" : 										{
											"major" : 5,
											"minor" : 1,
											"revision" : 9
										}
,
										"rect" : [ 675.0, 308.0, 449.0, 189.0 ],
										"bglocked" : 0,
										"defrect" : [ 675.0, 308.0, 449.0, 189.0 ],
										"openrect" : [ 0.0, 0.0, 0.0, 0.0 ],
										"openinpresentation" : 0,
										"default_fontsize" : 14.0,
										"default_fontface" : 0,
										"default_fontname" : "Arial",
										"gridonopen" : 0,
										"gridsize" : [ 20.0, 20.0 ],
										"gridsnaponopen" : 0,
										"toolbarvisible" : 1,
										"boxanimatetime" : 200,
										"imprint" : 0,
										"enablehscroll" : 1,
										"enablevscroll" : 1,
										"devicewidth" : 0.0,
										"boxes" : [ 											{
												"box" : 												{
													"maxclass" : "newobj",
													"text" : "+ 1",
													"patching_rect" : [ 280.0, 100.0, 32.5, 23.0 ],
													"numinlets" : 2,
													"fontname" : "Arial",
													"numoutlets" : 1,
													"outlettype" : [ "int" ],
													"fontsize" : 14.0,
													"id" : "obj-14"
												}

											}
, 											{
												"box" : 												{
													"maxclass" : "newobj",
													"text" : "loadmess 11",
													"patching_rect" : [ 320.0, 80.0, 89.0, 23.0 ],
													"numinlets" : 1,
													"fontname" : "Arial",
													"numoutlets" : 1,
													"outlettype" : [ "" ],
													"fontsize" : 14.0,
													"hidden" : 1,
													"id" : "obj-10"
												}

											}
, 											{
												"box" : 												{
													"maxclass" : "umenu",
													"arrowframe" : 0,
													"patching_rect" : [ 280.0, 40.0, 117.0, 23.0 ],
													"numinlets" : 1,
													"fontname" : "Arial",
													"textcolor2" : [ 0.0, 0.0, 0.0, 1.0 ],
													"numoutlets" : 3,
													"bgcolor2" : [ 0.917647, 0.937255, 0.670588, 1.0 ],
													"hltcolor" : [ 1.0, 1.0, 1.0, 1.0 ],
													"align" : 1,
													"outlettype" : [ "int", "", "" ],
													"types" : [  ],
													"fontsize" : 14.0,
													"framecolor" : [ 0.827451, 0.827451, 0.827451, 0.0 ],
													"items" : [ "Grand", "Piano", ",", "Bright", "Piano", ",", "Electric", "Grand", ",", "Honkytonk", "Piano", ",", "Electric", "Piano", 1, ",", "Electric", "Piano", 2, ",", "Harpsichord", ",", "Clavinet", ",", "Celesta", ",", "Glockenspiel", ",", "Music", "Box", ",", "Vibraphone", ",", "Marimba", ",", "Xylophone", ",", "Tubular", "Bell", ",", "Dulcimer", ",", "Drawbar", "Organ", ",", "Percussive", "Organ", ",", "Rock", "Organ", ",", "Church", "Organ", ",", "Reed", "Organ", ",", "Accordion", ",", "Harmonica", ",", "Tango", "Accordion", ",", "Nylon", "String", "Guitar", ",", "Steel", "String", "Guitar", ",", "Jazz", "Guitar", ",", "Clean", "Guitar", ",", "Muted", "Guitar", ",", "Overdrive", "Guitar", ",", "Distortion", "Guitar", ",", "Guitar", "Harmonics", ",", "Acoustic", "Bass", ",", "Fingered", "Bass", ",", "Picked", "Bass", ",", "Fretless", "Bass", ",", "Slap", "Bass", 1, ",", "Slap", "Bass", 2, ",", "Synth", "Bass", 1, ",", "Synth", "Bass", 2, ",", "Violin", ",", "Viola", ",", "Cello", ",", "Contrabass", ",", "Tremolo", "Strings", ",", "Pizzicato", "Strings", ",", "Harp", ",", "Timpani", ",", "String", "Ensemble", ",", "Slow", "Strings", ",", "Synth", "Strings", 1, ",", "Synth", "Strings", 2, ",", "Choir", "Aahs", ",", "Voice", "Oohs", ",", "Synth", "Vox", ",", "Orchestra", "Hit", ",", "Trumpet", ",", "Trombone", ",", "Tuba", ",", "Muted", "Trumpet", ",", "French", "Horn", ",", "Brass", 1, ",", "Synth", "Brass", 1, ",", "Synth", "Brass", 2, ",", "Soprano", "Sax", ",", "Alto", "Sax", ",", "Tenor", "Sax", ",", "Baritone", "Sax", ",", "Oboe", ",", "English", "Horn", ",", "Bassoon", ",", "Clarinet", ",", "Piccolo", ",", "Flute", ",", "Recorder", ",", "Pan", "Flute", ",", "Blown", "Bottle", ",", "Shakuhachi", ",", "Whistle", ",", "Ocarina", ",", "Square", "Wave", ",", "Sawtooth", "Wave", ",", "Synth", "Calliope", ",", "Chiffer", "Lead", ",", "Charang", ",", "Solo", "Vox", ",", "5th", "Sawtooth", "Wave", ",", "Bass", "and", "Lead", ",", "Fantasia", ",", "Warm", "Pad", ",", "Polysynth", ",", "Space", "Voice", ",", "Bowed", "Glass", ",", "Metal", "Pad", ",", "Halo", "Pad", ",", "Sweep", "Pad", ",", "Ice", "Rain", ",", "Soundtrack", ",", "Crystal", ",", "Atmosphere", ",", "Brightness", ",", "Goblin", ",", "Echo", "Drops", ",", "Star", "Theme", ",", "Sitar", ",", "Banjo", ",", "Shamisen", ",", "Koto", ",", "Kalimba", ",", "Bag", "Pipe", ",", "Fiddle", ",", "Shanai", ",", "Tinkle", "Bell", ",", "Agogo", ",", "Steel", "Drums", ",", "Woodblock", ",", "Taiko", ",", "Melo", "Tom", ",", "Synth", "Drum", ",", "Reverse", "Cymbal", ",", "Guitar", "Fret", "Noise", ",", "Breath", "Noise", ",", "Seashore", ",", "Bird", ",", "Telephone", ",", "Helicopter", ",", "Applause", ",", "Gun", "Shot" ],
													"arrow" : 0,
													"bgcolor" : [ 0.827451, 0.737255, 0.835294, 0.0 ],
													"id" : "obj-12"
												}

											}
, 											{
												"box" : 												{
													"maxclass" : "newobj",
													"text" : "pgmout",
													"patching_rect" : [ 280.0, 140.0, 57.0, 23.0 ],
													"numinlets" : 2,
													"fontname" : "Arial",
													"numoutlets" : 0,
													"fontsize" : 14.0,
													"id" : "obj-13"
												}

											}
, 											{
												"box" : 												{
													"maxclass" : "newobj",
													"text" : "freebang",
													"patching_rect" : [ 420.0, 20.0, 66.0, 23.0 ],
													"numinlets" : 0,
													"fontname" : "Arial",
													"numoutlets" : 1,
													"outlettype" : [ "bang" ],
													"fontsize" : 14.0,
													"hidden" : 1,
													"id" : "obj-21"
												}

											}
, 											{
												"box" : 												{
													"maxclass" : "newobj",
													"text" : "i 0",
													"patching_rect" : [ 420.0, 100.0, 36.0, 23.0 ],
													"numinlets" : 2,
													"fontname" : "Arial",
													"numoutlets" : 1,
													"outlettype" : [ "int" ],
													"fontsize" : 14.0,
													"hidden" : 1,
													"id" : "obj-18"
												}

											}
, 											{
												"box" : 												{
													"maxclass" : "newobj",
													"text" : "uzi 16 1",
													"patching_rect" : [ 420.0, 60.0, 72.0, 23.0 ],
													"numinlets" : 2,
													"fontname" : "Arial",
													"numoutlets" : 3,
													"outlettype" : [ "bang", "bang", "int" ],
													"fontsize" : 14.0,
													"hidden" : 1,
													"id" : "obj-17"
												}

											}
, 											{
												"box" : 												{
													"maxclass" : "newobj",
													"text" : "ctlout 123",
													"patching_rect" : [ 420.0, 140.0, 72.0, 23.0 ],
													"numinlets" : 3,
													"fontname" : "Arial",
													"numoutlets" : 0,
													"fontsize" : 14.0,
													"hidden" : 1,
													"id" : "obj-19"
												}

											}
, 											{
												"box" : 												{
													"maxclass" : "newobj",
													"text" : "noteout",
													"patching_rect" : [ 20.0, 140.0, 235.0, 23.0 ],
													"numinlets" : 3,
													"fontname" : "Arial",
													"numoutlets" : 0,
													"fontsize" : 14.0,
													"color" : [ 0.501961, 0.717647, 0.764706, 1.0 ],
													"id" : "obj-4"
												}

											}
, 											{
												"box" : 												{
													"maxclass" : "newobj",
													"text" : "makenote 90 250 1 @repeatmode 1",
													"patching_rect" : [ 20.0, 100.0, 235.0, 23.0 ],
													"numinlets" : 4,
													"fontname" : "Arial",
													"numoutlets" : 3,
													"outlettype" : [ "float", "float", "float" ],
													"fontsize" : 14.0,
													"id" : "obj-3"
												}

											}
, 											{
												"box" : 												{
													"maxclass" : "inlet",
													"patching_rect" : [ 20.0, 20.0, 25.0, 25.0 ],
													"numinlets" : 0,
													"numoutlets" : 1,
													"outlettype" : [ "list" ],
													"id" : "obj-1",
													"comment" : "(int)"
												}

											}
 ],
										"lines" : [ 											{
												"patchline" : 												{
													"source" : [ "obj-1", 0 ],
													"destination" : [ "obj-3", 0 ],
													"hidden" : 0,
													"midpoints" : [  ]
												}

											}
, 											{
												"patchline" : 												{
													"source" : [ "obj-3", 2 ],
													"destination" : [ "obj-4", 2 ],
													"hidden" : 0,
													"midpoints" : [  ]
												}

											}
, 											{
												"patchline" : 												{
													"source" : [ "obj-3", 1 ],
													"destination" : [ "obj-4", 1 ],
													"hidden" : 0,
													"midpoints" : [  ]
												}

											}
, 											{
												"patchline" : 												{
													"source" : [ "obj-3", 0 ],
													"destination" : [ "obj-4", 0 ],
													"hidden" : 0,
													"midpoints" : [  ]
												}

											}
, 											{
												"patchline" : 												{
													"source" : [ "obj-14", 0 ],
													"destination" : [ "obj-13", 0 ],
													"hidden" : 0,
													"midpoints" : [  ]
												}

											}
, 											{
												"patchline" : 												{
													"source" : [ "obj-12", 0 ],
													"destination" : [ "obj-14", 0 ],
													"hidden" : 0,
													"midpoints" : [  ]
												}

											}
, 											{
												"patchline" : 												{
													"source" : [ "obj-17", 2 ],
													"destination" : [ "obj-19", 2 ],
													"hidden" : 1,
													"midpoints" : [  ]
												}

											}
, 											{
												"patchline" : 												{
													"source" : [ "obj-18", 0 ],
													"destination" : [ "obj-19", 0 ],
													"hidden" : 1,
													"midpoints" : [  ]
												}

											}
, 											{
												"patchline" : 												{
													"source" : [ "obj-17", 0 ],
													"destination" : [ "obj-18", 0 ],
													"hidden" : 1,
													"midpoints" : [  ]
												}

											}
, 											{
												"patchline" : 												{
													"source" : [ "obj-21", 0 ],
													"destination" : [ "obj-17", 0 ],
													"hidden" : 1,
													"midpoints" : [  ]
												}

											}
, 											{
												"patchline" : 												{
													"source" : [ "obj-10", 0 ],
													"destination" : [ "obj-12", 0 ],
													"hidden" : 1,
													"midpoints" : [  ]
												}

											}
 ]
									}
,
									"saved_object_attributes" : 									{
										"fontname" : "Arial",
										"default_fontface" : 0,
										"globalpatchername" : "",
										"default_fontname" : "Arial",
										"fontface" : 0,
										"fontsize" : 14.0,
										"default_fontsize" : 14.0
									}

								}

							}
, 							{
								"box" : 								{
									"maxclass" : "outlet",
									"patching_rect" : [ 200.0, 280.0, 25.0, 25.0 ],
									"numinlets" : 1,
									"numoutlets" : 0,
									"id" : "obj-4",
									"comment" : ""
								}

							}
, 							{
								"box" : 								{
									"maxclass" : "inlet",
									"patching_rect" : [ 20.0, 20.0, 25.0, 25.0 ],
									"numinlets" : 0,
									"numoutlets" : 1,
									"outlettype" : [ "" ],
									"id" : "obj-2",
									"comment" : ""
								}

							}
, 							{
								"box" : 								{
									"maxclass" : "tralala",
									"patching_rect" : [ 20.0, 60.0, 350.0, 200.0 ],
									"numinlets" : 1,
									"numoutlets" : 5,
									"outlettype" : [ "list", "", "", "bang", "" ],
									"yoffset" : 799,
									"id" : "obj-1",
									"tralala" : 									{
										"untitled" : 										{
											"bpm" : [ "bpm", 240 ],
											"chance" : [ "chance", 100 ],
											"velocity" : [ "velocity", 0 ],
											"channel" : [ "channel", 1 ],
											"chord" : [ "chord", 0 ],
											"value" : [ "value", 6 ],
											"scale" : [ "scale", "C", "none" ],
											"mute" : [ "mute", 0 ],
											"zone" : [ "zone", 0, 96, 48, 59 ],
											"cell" : [ "cell", 12 ],
											"2" : [ "note", 0, 48, 74, 12, 0 ]
										}

									}

								}

							}
 ],
						"lines" : [ 							{
								"patchline" : 								{
									"source" : [ "obj-1", 0 ],
									"destination" : [ "obj-16", 0 ],
									"hidden" : 0,
									"midpoints" : [  ]
								}

							}
, 							{
								"patchline" : 								{
									"source" : [ "obj-1", 2 ],
									"destination" : [ "obj-4", 0 ],
									"hidden" : 0,
									"midpoints" : [  ]
								}

							}
, 							{
								"patchline" : 								{
									"source" : [ "obj-2", 0 ],
									"destination" : [ "obj-1", 0 ],
									"hidden" : 0,
									"midpoints" : [  ]
								}

							}
 ]
					}
,
					"saved_object_attributes" : 					{
						"fontname" : "Arial",
						"default_fontface" : 0,
						"globalpatchername" : "",
						"default_fontname" : "Arial",
						"fontface" : 0,
						"fontsize" : 14.0,
						"default_fontsize" : 14.0
					}

				}

			}
, 			{
				"box" : 				{
					"maxclass" : "comment",
					"text" : "Timestamp",
					"frgb" : [ 0.93, 0.93, 0.97, 1.0 ],
					"patching_rect" : [ 13.0, 13.0, 122.0, 30.0 ],
					"numinlets" : 1,
					"fontname" : "Arial",
					"presentation" : 0,
					"numoutlets" : 0,
					"fontface" : 3,
					"background" : 0,
					"fontsize" : 20.871338,
					"bgcolor" : [ 1.0, 1.0, 1.0, 0.0 ],
					"underline" : 0,
					"presentation_rect" : [ 0.0, 0.0, 0.0, 0.0 ],
					"textcolor" : [ 0.93, 0.93, 0.97, 1.0 ],
					"ignoreclick" : 1,
					"hidden" : 0,
					"id" : "obj-14"
				}

			}
, 			{
				"box" : 				{
					"maxclass" : "panel",
					"patching_rect" : [ 10.0, 9.0, 355.0, 64.0 ],
					"numinlets" : 1,
					"mode" : 1,
					"presentation" : 0,
					"border" : 0,
					"rounded" : 8,
					"numoutlets" : 0,
					"grad1" : [ 0.188235, 0.105882, 0.266667, 1.0 ],
					"shadow" : 0,
					"background" : 1,
					"bordercolor" : [ 0.0, 0.0, 0.0, 1.0 ],
					"grad2" : [ 0.858824, 0.858824, 0.858824, 1.0 ],
					"angle" : 0.0,
					"bgcolor" : [ 0.66667, 0.66667, 0.66667, 1.0 ],
					"presentation_rect" : [ 0.0, 0.0, 0.0, 0.0 ],
					"ignoreclick" : 1,
					"hidden" : 0,
					"id" : "obj-23"
				}

			}
 ],
		"lines" : [ 			{
				"patchline" : 				{
					"source" : [ "obj-27", 0 ],
					"destination" : [ "obj-1", 0 ],
					"hidden" : 0,
					"color" : [ 0.694118, 0.694118, 0.694118, 1.0 ],
					"midpoints" : [  ]
				}

			}
, 			{
				"patchline" : 				{
					"source" : [ "obj-1", 0 ],
					"destination" : [ "obj-27", 0 ],
					"hidden" : 0,
					"color" : [ 0.694118, 0.694118, 0.694118, 1.0 ],
					"midpoints" : [  ]
				}

			}
, 			{
				"patchline" : 				{
					"source" : [ "obj-1", 0 ],
					"destination" : [ "obj-20", 0 ],
					"hidden" : 0,
					"color" : [ 0.694118, 0.694118, 0.694118, 1.0 ],
					"midpoints" : [  ]
				}

			}
, 			{
				"patchline" : 				{
					"source" : [ "obj-15", 0 ],
					"destination" : [ "obj-1", 0 ],
					"hidden" : 1,
					"color" : [ 0.694118, 0.694118, 0.694118, 1.0 ],
					"midpoints" : [  ]
				}

			}
, 			{
				"patchline" : 				{
					"source" : [ "obj-2", 0 ],
					"destination" : [ "obj-15", 0 ],
					"hidden" : 1,
					"color" : [ 0.694118, 0.694118, 0.694118, 1.0 ],
					"midpoints" : [  ]
				}

			}
, 			{
				"patchline" : 				{
					"source" : [ "obj-20", 0 ],
					"destination" : [ "obj-13", 0 ],
					"hidden" : 0,
					"color" : [ 0.694118, 0.694118, 0.694118, 1.0 ],
					"midpoints" : [  ]
				}

			}
, 			{
				"patchline" : 				{
					"source" : [ "obj-8", 0 ],
					"destination" : [ "obj-1", 0 ],
					"hidden" : 0,
					"color" : [ 0.694118, 0.694118, 0.694118, 1.0 ],
					"midpoints" : [  ]
				}

			}
, 			{
				"patchline" : 				{
					"source" : [ "obj-1", 0 ],
					"destination" : [ "obj-21", 1 ],
					"hidden" : 0,
					"color" : [ 0.694118, 0.694118, 0.694118, 1.0 ],
					"midpoints" : [  ]
				}

			}
, 			{
				"patchline" : 				{
					"source" : [ "obj-22", 0 ],
					"destination" : [ "obj-21", 1 ],
					"hidden" : 1,
					"color" : [ 0.694118, 0.694118, 0.694118, 1.0 ],
					"midpoints" : [  ]
				}

			}
 ]
	}

}
