{
	"patcher" : 	{
		"fileversion" : 1,
		"appversion" : 		{
			"major" : 5,
			"minor" : 1,
			"revision" : 9
		}
,
		"rect" : [ 171.0, 127.0, 589.0, 459.0 ],
		"bglocked" : 0,
		"defrect" : [ 171.0, 127.0, 589.0, 459.0 ],
		"openrect" : [ 0.0, 0.0, 0.0, 0.0 ],
		"openinpresentation" : 0,
		"default_fontsize" : 14.0,
		"default_fontface" : 0,
		"default_fontname" : "Arial",
		"gridonopen" : 0,
		"gridsize" : [ 20.0, 20.0 ],
		"gridsnaponopen" : 0,
		"toolbarvisible" : 1,
		"boxanimatetime" : 200,
		"imprint" : 0,
		"enablehscroll" : 1,
		"enablevscroll" : 1,
		"devicewidth" : 0.0,
		"boxes" : [ 			{
				"box" : 				{
					"maxclass" : "message",
					"text" : "store",
					"patching_rect" : [ 200.0, 40.0, 42.0, 21.0 ],
					"numinlets" : 2,
					"fontname" : "Arial",
					"numoutlets" : 1,
					"outlettype" : [ "" ],
					"fontsize" : 14.0,
					"id" : "obj-5"
				}

			}
, 			{
				"box" : 				{
					"maxclass" : "tralala",
					"patching_rect" : [ 20.0, 140.0, 258.0, 190.0 ],
					"numinlets" : 1,
					"yoffset" : 655,
					"numoutlets" : 4,
					"outlettype" : [ "list", "", "", "bang" ],
					"id" : "obj-1",
					"tralala" : 					{
						"untitled" : 						{
							"bpm" : [ "bpm", 120 ],
							"chance" : [ "chance", 100 ],
							"velocity" : [ "velocity", 0 ],
							"channel" : [ "channel", 1 ],
							"chord" : [ "chord", 0 ],
							"cell" : [ "cell", 12 ],
							"value" : [ "value", 12 ],
							"scale" : [ "scale", "C", "none" ],
							"pattern" : [ "pattern" ],
							"zone" : [ "zone", 0, 96, 60, 71 ],
							"0" : [ "note", 12, 70, 80, 12, 0 ],
							"1" : [ "note", 24, 69, 80, 12, 0 ],
							"2" : [ "note", 36, 68, 80, 12, 0 ],
							"3" : [ "note", 48, 67, 80, 12, 0 ],
							"4" : [ "note", 60, 68, 80, 12, 0 ],
							"5" : [ "note", 72, 69, 80, 12, 0 ],
							"6" : [ "note", 84, 70, 80, 12, 0 ],
							"7" : [ "note", 0, 69, 80, 12, 0 ]
						}

					}

				}

			}
, 			{
				"box" : 				{
					"maxclass" : "newobj",
					"text" : "p",
					"patching_rect" : [ 20.0, 340.0, 47.0, 23.0 ],
					"numinlets" : 1,
					"fontname" : "Arial",
					"numoutlets" : 0,
					"fontsize" : 14.0,
					"id" : "obj-4",
					"patcher" : 					{
						"fileversion" : 1,
						"appversion" : 						{
							"major" : 5,
							"minor" : 1,
							"revision" : 9
						}
,
						"rect" : [ 25.0, 69.0, 214.0, 281.0 ],
						"bglocked" : 0,
						"defrect" : [ 25.0, 69.0, 214.0, 281.0 ],
						"openrect" : [ 0.0, 0.0, 0.0, 0.0 ],
						"openinpresentation" : 0,
						"default_fontsize" : 14.0,
						"default_fontface" : 0,
						"default_fontname" : "Arial",
						"gridonopen" : 0,
						"gridsize" : [ 20.0, 20.0 ],
						"gridsnaponopen" : 0,
						"toolbarvisible" : 1,
						"boxanimatetime" : 200,
						"imprint" : 0,
						"enablehscroll" : 1,
						"enablevscroll" : 1,
						"devicewidth" : 0.0,
						"boxes" : [ 							{
								"box" : 								{
									"maxclass" : "flonum",
									"patching_rect" : [ 20.0, 160.0, 74.0, 23.0 ],
									"numinlets" : 1,
									"fontname" : "Arial",
									"numoutlets" : 2,
									"outlettype" : [ "float", "bang" ],
									"fontsize" : 14.0,
									"id" : "obj-11"
								}

							}
, 							{
								"box" : 								{
									"maxclass" : "newobj",
									"text" : "print !!!",
									"patching_rect" : [ 100.0, 240.0, 53.0, 23.0 ],
									"numinlets" : 1,
									"fontname" : "Arial",
									"numoutlets" : 0,
									"fontsize" : 14.0,
									"id" : "obj-7"
								}

							}
, 							{
								"box" : 								{
									"maxclass" : "newobj",
									"text" : "split 124. 126.",
									"patching_rect" : [ 20.0, 200.0, 99.0, 23.0 ],
									"numinlets" : 3,
									"fontname" : "Arial",
									"numoutlets" : 2,
									"outlettype" : [ "float", "float" ],
									"fontsize" : 14.0,
									"id" : "obj-6"
								}

							}
, 							{
								"box" : 								{
									"maxclass" : "newobj",
									"text" : "t b b",
									"patching_rect" : [ 20.0, 80.0, 38.0, 23.0 ],
									"numinlets" : 1,
									"fontname" : "Arial",
									"numoutlets" : 2,
									"outlettype" : [ "bang", "bang" ],
									"fontsize" : 14.0,
									"id" : "obj-21"
								}

							}
, 							{
								"box" : 								{
									"maxclass" : "newobj",
									"text" : "p cputimer",
									"patching_rect" : [ 20.0, 120.0, 77.0, 23.0 ],
									"numinlets" : 2,
									"fontname" : "Arial",
									"numoutlets" : 1,
									"outlettype" : [ "float" ],
									"fontsize" : 14.0,
									"id" : "obj-20",
									"patcher" : 									{
										"fileversion" : 1,
										"appversion" : 										{
											"major" : 5,
											"minor" : 1,
											"revision" : 9
										}
,
										"rect" : [ 525.0, 182.0, 197.0, 237.0 ],
										"bglocked" : 0,
										"defrect" : [ 525.0, 182.0, 197.0, 237.0 ],
										"openrect" : [ 0.0, 0.0, 0.0, 0.0 ],
										"openinpresentation" : 0,
										"default_fontsize" : 11.595187,
										"default_fontface" : 0,
										"default_fontname" : "Arial",
										"gridonopen" : 0,
										"gridsize" : [ 15.0, 15.0 ],
										"gridsnaponopen" : 0,
										"toolbarvisible" : 1,
										"boxanimatetime" : 200,
										"imprint" : 0,
										"enablehscroll" : 1,
										"enablevscroll" : 1,
										"devicewidth" : 0.0,
										"boxes" : [ 											{
												"box" : 												{
													"maxclass" : "outlet",
													"patching_rect" : [ 34.0, 173.0, 25.0, 25.0 ],
													"numinlets" : 1,
													"numoutlets" : 0,
													"id" : "obj-1",
													"comment" : "interval in ms is reported here"
												}

											}
, 											{
												"box" : 												{
													"maxclass" : "newobj",
													"text" : "b 1",
													"patching_rect" : [ 107.0, 78.0, 27.0, 20.0 ],
													"numinlets" : 1,
													"fontname" : "Arial",
													"numoutlets" : 1,
													"outlettype" : [ "bang" ],
													"fontsize" : 11.595187,
													"id" : "obj-2"
												}

											}
, 											{
												"box" : 												{
													"maxclass" : "newobj",
													"text" : "cpuclock",
													"patching_rect" : [ 107.0, 104.0, 56.0, 20.0 ],
													"numinlets" : 1,
													"fontname" : "Arial",
													"numoutlets" : 1,
													"outlettype" : [ "float" ],
													"fontsize" : 11.595187,
													"id" : "obj-3"
												}

											}
, 											{
												"box" : 												{
													"maxclass" : "newobj",
													"text" : "- 0.",
													"patching_rect" : [ 34.0, 143.0, 32.5, 20.0 ],
													"numinlets" : 2,
													"fontname" : "Arial",
													"numoutlets" : 1,
													"outlettype" : [ "float" ],
													"fontsize" : 11.595187,
													"id" : "obj-4"
												}

											}
, 											{
												"box" : 												{
													"maxclass" : "newobj",
													"text" : "b 1",
													"patching_rect" : [ 48.0, 78.0, 27.0, 20.0 ],
													"numinlets" : 1,
													"fontname" : "Arial",
													"numoutlets" : 1,
													"outlettype" : [ "bang" ],
													"fontsize" : 11.595187,
													"id" : "obj-5"
												}

											}
, 											{
												"box" : 												{
													"maxclass" : "newobj",
													"text" : "cpuclock",
													"patching_rect" : [ 47.5, 104.0, 56.0, 20.0 ],
													"numinlets" : 1,
													"fontname" : "Arial",
													"numoutlets" : 1,
													"outlettype" : [ "float" ],
													"fontsize" : 11.595187,
													"id" : "obj-6"
												}

											}
, 											{
												"box" : 												{
													"maxclass" : "inlet",
													"patching_rect" : [ 107.0, 47.0, 25.0, 25.0 ],
													"numinlets" : 0,
													"numoutlets" : 1,
													"outlettype" : [ "bang" ],
													"id" : "obj-7",
													"comment" : "bang stops timing and reports interval"
												}

											}
, 											{
												"box" : 												{
													"maxclass" : "inlet",
													"patching_rect" : [ 48.0, 47.0, 25.0, 25.0 ],
													"numinlets" : 0,
													"numoutlets" : 1,
													"outlettype" : [ "bang" ],
													"id" : "obj-8",
													"comment" : "bang starts timing interval"
												}

											}
 ],
										"lines" : [ 											{
												"patchline" : 												{
													"source" : [ "obj-8", 0 ],
													"destination" : [ "obj-5", 0 ],
													"hidden" : 0,
													"midpoints" : [  ]
												}

											}
, 											{
												"patchline" : 												{
													"source" : [ "obj-5", 0 ],
													"destination" : [ "obj-6", 0 ],
													"hidden" : 0,
													"midpoints" : [  ]
												}

											}
, 											{
												"patchline" : 												{
													"source" : [ "obj-2", 0 ],
													"destination" : [ "obj-3", 0 ],
													"hidden" : 0,
													"midpoints" : [  ]
												}

											}
, 											{
												"patchline" : 												{
													"source" : [ "obj-7", 0 ],
													"destination" : [ "obj-2", 0 ],
													"hidden" : 0,
													"midpoints" : [  ]
												}

											}
, 											{
												"patchline" : 												{
													"source" : [ "obj-3", 0 ],
													"destination" : [ "obj-4", 0 ],
													"hidden" : 0,
													"midpoints" : [  ]
												}

											}
, 											{
												"patchline" : 												{
													"source" : [ "obj-4", 0 ],
													"destination" : [ "obj-1", 0 ],
													"hidden" : 0,
													"midpoints" : [  ]
												}

											}
, 											{
												"patchline" : 												{
													"source" : [ "obj-6", 0 ],
													"destination" : [ "obj-4", 1 ],
													"hidden" : 0,
													"midpoints" : [  ]
												}

											}
 ]
									}
,
									"saved_object_attributes" : 									{
										"fontname" : "Arial",
										"default_fontface" : 0,
										"globalpatchername" : "",
										"default_fontname" : "Arial",
										"fontface" : 0,
										"fontsize" : 11.595187,
										"default_fontsize" : 11.595187
									}

								}

							}
, 							{
								"box" : 								{
									"maxclass" : "inlet",
									"patching_rect" : [ 20.0, 20.0, 25.0, 25.0 ],
									"numinlets" : 0,
									"numoutlets" : 1,
									"outlettype" : [ "list" ],
									"id" : "obj-2",
									"comment" : ""
								}

							}
 ],
						"lines" : [ 							{
								"patchline" : 								{
									"source" : [ "obj-21", 1 ],
									"destination" : [ "obj-20", 1 ],
									"hidden" : 0,
									"midpoints" : [  ]
								}

							}
, 							{
								"patchline" : 								{
									"source" : [ "obj-21", 0 ],
									"destination" : [ "obj-20", 0 ],
									"hidden" : 0,
									"midpoints" : [  ]
								}

							}
, 							{
								"patchline" : 								{
									"source" : [ "obj-6", 1 ],
									"destination" : [ "obj-7", 0 ],
									"hidden" : 0,
									"midpoints" : [  ]
								}

							}
, 							{
								"patchline" : 								{
									"source" : [ "obj-20", 0 ],
									"destination" : [ "obj-11", 0 ],
									"hidden" : 0,
									"midpoints" : [  ]
								}

							}
, 							{
								"patchline" : 								{
									"source" : [ "obj-11", 0 ],
									"destination" : [ "obj-6", 0 ],
									"hidden" : 0,
									"midpoints" : [  ]
								}

							}
, 							{
								"patchline" : 								{
									"source" : [ "obj-2", 0 ],
									"destination" : [ "obj-21", 0 ],
									"hidden" : 0,
									"midpoints" : [  ]
								}

							}
 ]
					}
,
					"saved_object_attributes" : 					{
						"fontname" : "Arial",
						"default_fontface" : 0,
						"globalpatchername" : "",
						"default_fontname" : "Arial",
						"fontface" : 0,
						"fontsize" : 14.0,
						"default_fontsize" : 14.0
					}

				}

			}
, 			{
				"box" : 				{
					"maxclass" : "message",
					"text" : "load",
					"patching_rect" : [ 120.0, 20.0, 37.0, 21.0 ],
					"numinlets" : 2,
					"fontname" : "Arial",
					"numoutlets" : 1,
					"outlettype" : [ "" ],
					"fontsize" : 14.0,
					"id" : "obj-3"
				}

			}
, 			{
				"box" : 				{
					"maxclass" : "message",
					"text" : "stop",
					"patching_rect" : [ 60.0, 40.0, 37.0, 21.0 ],
					"numinlets" : 2,
					"fontname" : "Arial",
					"numoutlets" : 1,
					"outlettype" : [ "" ],
					"fontsize" : 14.0,
					"id" : "obj-15"
				}

			}
, 			{
				"box" : 				{
					"maxclass" : "message",
					"text" : "loop",
					"patching_rect" : [ 20.0, 40.0, 37.0, 21.0 ],
					"numinlets" : 2,
					"fontname" : "Arial",
					"numoutlets" : 1,
					"outlettype" : [ "" ],
					"fontsize" : 14.0,
					"id" : "obj-8"
				}

			}
, 			{
				"box" : 				{
					"maxclass" : "message",
					"text" : "scramble",
					"patching_rect" : [ 100.0, 80.0, 67.0, 21.0 ],
					"numinlets" : 2,
					"fontname" : "Arial",
					"numoutlets" : 1,
					"outlettype" : [ "" ],
					"fontsize" : 14.0,
					"id" : "obj-9"
				}

			}
 ],
		"lines" : [ 			{
				"patchline" : 				{
					"source" : [ "obj-1", 0 ],
					"destination" : [ "obj-4", 0 ],
					"hidden" : 0,
					"midpoints" : [  ]
				}

			}
, 			{
				"patchline" : 				{
					"source" : [ "obj-5", 0 ],
					"destination" : [ "obj-1", 0 ],
					"hidden" : 0,
					"midpoints" : [  ]
				}

			}
, 			{
				"patchline" : 				{
					"source" : [ "obj-9", 0 ],
					"destination" : [ "obj-1", 0 ],
					"hidden" : 0,
					"midpoints" : [  ]
				}

			}
, 			{
				"patchline" : 				{
					"source" : [ "obj-3", 0 ],
					"destination" : [ "obj-1", 0 ],
					"hidden" : 0,
					"midpoints" : [  ]
				}

			}
, 			{
				"patchline" : 				{
					"source" : [ "obj-15", 0 ],
					"destination" : [ "obj-1", 0 ],
					"hidden" : 0,
					"midpoints" : [  ]
				}

			}
, 			{
				"patchline" : 				{
					"source" : [ "obj-8", 0 ],
					"destination" : [ "obj-1", 0 ],
					"hidden" : 0,
					"midpoints" : [  ]
				}

			}
 ]
	}

}
