{
	"patcher" : 	{
		"fileversion" : 1,
		"appversion" : 		{
			"major" : 5,
			"minor" : 1,
			"revision" : 9
		}
,
		"rect" : [ 22.0, 79.0, 301.0, 316.0 ],
		"bglocked" : 0,
		"defrect" : [ 22.0, 79.0, 301.0, 316.0 ],
		"openrect" : [ 0.0, 0.0, 0.0, 0.0 ],
		"openinpresentation" : 0,
		"default_fontsize" : 14.0,
		"default_fontface" : 0,
		"default_fontname" : "Arial",
		"gridonopen" : 0,
		"gridsize" : [ 20.0, 20.0 ],
		"gridsnaponopen" : 0,
		"toolbarvisible" : 1,
		"boxanimatetime" : 200,
		"imprint" : 0,
		"enablehscroll" : 1,
		"enablevscroll" : 1,
		"devicewidth" : 0.0,
		"boxes" : [ 			{
				"box" : 				{
					"maxclass" : "newobj",
					"text" : "p msg",
					"patching_rect" : [ 180.0, 140.0, 49.0, 23.0 ],
					"fontname" : "Arial",
					"fontsize" : 14.0,
					"color" : [ 0.827451, 0.737255, 0.835294, 1.0 ],
					"numinlets" : 0,
					"numoutlets" : 1,
					"id" : "obj-7",
					"outlettype" : [ "" ],
					"patcher" : 					{
						"fileversion" : 1,
						"appversion" : 						{
							"major" : 5,
							"minor" : 1,
							"revision" : 9
						}
,
						"rect" : [ 474.0, 144.0, 502.0, 449.0 ],
						"bglocked" : 0,
						"defrect" : [ 474.0, 144.0, 502.0, 449.0 ],
						"openrect" : [ 0.0, 0.0, 0.0, 0.0 ],
						"openinpresentation" : 0,
						"default_fontsize" : 14.0,
						"default_fontface" : 0,
						"default_fontname" : "Arial",
						"gridonopen" : 0,
						"gridsize" : [ 20.0, 20.0 ],
						"gridsnaponopen" : 0,
						"toolbarvisible" : 1,
						"boxanimatetime" : 200,
						"imprint" : 0,
						"enablehscroll" : 1,
						"enablevscroll" : 1,
						"devicewidth" : 0.0,
						"boxes" : [ 							{
								"box" : 								{
									"maxclass" : "message",
									"text" : "chance 100",
									"patching_rect" : [ 360.0, 300.0, 83.0, 21.0 ],
									"fontname" : "Arial",
									"fontsize" : 14.0,
									"numinlets" : 2,
									"presentation_rect" : [ 400.0, 295.0, 0.0, 0.0 ],
									"numoutlets" : 1,
									"id" : "obj-15",
									"outlettype" : [ "" ]
								}

							}
, 							{
								"box" : 								{
									"maxclass" : "message",
									"text" : "chance 50",
									"patching_rect" : [ 280.0, 300.0, 75.0, 21.0 ],
									"fontname" : "Arial",
									"fontsize" : 14.0,
									"numinlets" : 2,
									"numoutlets" : 1,
									"id" : "obj-14",
									"outlettype" : [ "" ]
								}

							}
, 							{
								"box" : 								{
									"maxclass" : "message",
									"text" : "change channel 1",
									"patching_rect" : [ 20.0, 240.0, 121.0, 21.0 ],
									"fontname" : "Arial",
									"fontsize" : 14.0,
									"numinlets" : 2,
									"numoutlets" : 1,
									"id" : "obj-7",
									"outlettype" : [ "" ]
								}

							}
, 							{
								"box" : 								{
									"maxclass" : "message",
									"text" : "0 60 50, 24 62 70, 48 64 90, 72 66 100",
									"patching_rect" : [ 240.0, 120.0, 252.0, 21.0 ],
									"fontname" : "Arial",
									"fontsize" : 14.0,
									"numinlets" : 2,
									"numoutlets" : 1,
									"id" : "obj-11",
									"outlettype" : [ "" ]
								}

							}
, 							{
								"box" : 								{
									"maxclass" : "newobj",
									"text" : "prepend note",
									"patching_rect" : [ 240.0, 160.0, 93.0, 23.0 ],
									"fontname" : "Arial",
									"fontsize" : 14.0,
									"numinlets" : 1,
									"numoutlets" : 1,
									"id" : "obj-12",
									"outlettype" : [ "" ]
								}

							}
, 							{
								"box" : 								{
									"maxclass" : "newobj",
									"text" : "prepend note",
									"patching_rect" : [ 200.0, 80.0, 93.0, 23.0 ],
									"fontname" : "Arial",
									"fontsize" : 14.0,
									"numinlets" : 1,
									"numoutlets" : 1,
									"id" : "obj-10",
									"outlettype" : [ "" ]
								}

							}
, 							{
								"box" : 								{
									"maxclass" : "message",
									"text" : "0 60, 0 62, 0 64, 0 66",
									"patching_rect" : [ 200.0, 40.0, 143.0, 21.0 ],
									"fontname" : "Arial",
									"fontsize" : 14.0,
									"numinlets" : 2,
									"numoutlets" : 1,
									"id" : "obj-9",
									"outlettype" : [ "" ]
								}

							}
, 							{
								"box" : 								{
									"maxclass" : "message",
									"text" : "sort velocity down",
									"patching_rect" : [ 20.0, 200.0, 122.0, 21.0 ],
									"fontname" : "Arial",
									"fontsize" : 14.0,
									"numinlets" : 2,
									"numoutlets" : 1,
									"id" : "obj-8",
									"outlettype" : [ "" ]
								}

							}
, 							{
								"box" : 								{
									"maxclass" : "message",
									"text" : "scramble velocity",
									"patching_rect" : [ 20.0, 160.0, 118.0, 21.0 ],
									"fontname" : "Arial",
									"fontsize" : 14.0,
									"numinlets" : 2,
									"numoutlets" : 1,
									"id" : "obj-5",
									"outlettype" : [ "" ]
								}

							}
, 							{
								"box" : 								{
									"maxclass" : "message",
									"text" : "rotate velocity 2",
									"patching_rect" : [ 20.0, 120.0, 109.0, 21.0 ],
									"fontname" : "Arial",
									"fontsize" : 14.0,
									"numinlets" : 2,
									"numoutlets" : 1,
									"id" : "obj-2",
									"outlettype" : [ "" ]
								}

							}
, 							{
								"box" : 								{
									"maxclass" : "message",
									"text" : "clean 3",
									"patching_rect" : [ 20.0, 80.0, 56.0, 21.0 ],
									"fontname" : "Arial",
									"fontsize" : 14.0,
									"numinlets" : 2,
									"numoutlets" : 1,
									"id" : "obj-3",
									"outlettype" : [ "" ]
								}

							}
, 							{
								"box" : 								{
									"maxclass" : "message",
									"text" : "clear",
									"patching_rect" : [ 20.0, 40.0, 41.0, 21.0 ],
									"fontname" : "Arial",
									"fontsize" : 14.0,
									"numinlets" : 2,
									"numoutlets" : 1,
									"id" : "obj-4",
									"outlettype" : [ "" ]
								}

							}
, 							{
								"box" : 								{
									"maxclass" : "outlet",
									"patching_rect" : [ 20.0, 400.0, 25.0, 25.0 ],
									"numinlets" : 1,
									"numoutlets" : 0,
									"id" : "obj-6",
									"comment" : ""
								}

							}
 ],
						"lines" : [ 							{
								"patchline" : 								{
									"source" : [ "obj-15", 0 ],
									"destination" : [ "obj-6", 0 ],
									"hidden" : 0,
									"midpoints" : [ 369.5, 362.0, 29.5, 362.0 ]
								}

							}
, 							{
								"patchline" : 								{
									"source" : [ "obj-14", 0 ],
									"destination" : [ "obj-6", 0 ],
									"hidden" : 0,
									"midpoints" : [ 289.5, 362.0, 29.5, 362.0 ]
								}

							}
, 							{
								"patchline" : 								{
									"source" : [ "obj-7", 0 ],
									"destination" : [ "obj-6", 0 ],
									"hidden" : 0,
									"midpoints" : [  ]
								}

							}
, 							{
								"patchline" : 								{
									"source" : [ "obj-2", 0 ],
									"destination" : [ "obj-6", 0 ],
									"hidden" : 0,
									"midpoints" : [  ]
								}

							}
, 							{
								"patchline" : 								{
									"source" : [ "obj-3", 0 ],
									"destination" : [ "obj-6", 0 ],
									"hidden" : 0,
									"midpoints" : [  ]
								}

							}
, 							{
								"patchline" : 								{
									"source" : [ "obj-4", 0 ],
									"destination" : [ "obj-6", 0 ],
									"hidden" : 0,
									"midpoints" : [  ]
								}

							}
, 							{
								"patchline" : 								{
									"source" : [ "obj-5", 0 ],
									"destination" : [ "obj-6", 0 ],
									"hidden" : 0,
									"midpoints" : [  ]
								}

							}
, 							{
								"patchline" : 								{
									"source" : [ "obj-8", 0 ],
									"destination" : [ "obj-6", 0 ],
									"hidden" : 0,
									"midpoints" : [  ]
								}

							}
, 							{
								"patchline" : 								{
									"source" : [ "obj-9", 0 ],
									"destination" : [ "obj-10", 0 ],
									"hidden" : 0,
									"midpoints" : [  ]
								}

							}
, 							{
								"patchline" : 								{
									"source" : [ "obj-10", 0 ],
									"destination" : [ "obj-6", 0 ],
									"hidden" : 0,
									"midpoints" : [ 209.5, 362.0, 29.5, 362.0 ]
								}

							}
, 							{
								"patchline" : 								{
									"source" : [ "obj-11", 0 ],
									"destination" : [ "obj-12", 0 ],
									"hidden" : 0,
									"midpoints" : [  ]
								}

							}
, 							{
								"patchline" : 								{
									"source" : [ "obj-12", 0 ],
									"destination" : [ "obj-6", 0 ],
									"hidden" : 0,
									"midpoints" : [ 249.5, 362.0, 29.5, 362.0 ]
								}

							}
 ]
					}
,
					"saved_object_attributes" : 					{
						"fontname" : "Arial",
						"default_fontface" : 0,
						"globalpatchername" : "",
						"default_fontname" : "Arial",
						"fontface" : 0,
						"fontsize" : 14.0,
						"default_fontsize" : 14.0
					}

				}

			}
, 			{
				"box" : 				{
					"maxclass" : "newobj",
					"text" : "p attr",
					"patching_rect" : [ 140.0, 100.0, 42.0, 23.0 ],
					"fontname" : "Arial",
					"fontsize" : 14.0,
					"color" : [ 0.827451, 0.737255, 0.835294, 1.0 ],
					"numinlets" : 0,
					"numoutlets" : 1,
					"id" : "obj-21",
					"outlettype" : [ "" ],
					"patcher" : 					{
						"fileversion" : 1,
						"appversion" : 						{
							"major" : 5,
							"minor" : 1,
							"revision" : 9
						}
,
						"rect" : [ 112.0, 44.0, 176.0, 424.0 ],
						"bglocked" : 0,
						"defrect" : [ 112.0, 44.0, 176.0, 424.0 ],
						"openrect" : [ 0.0, 0.0, 0.0, 0.0 ],
						"openinpresentation" : 0,
						"default_fontsize" : 14.0,
						"default_fontface" : 0,
						"default_fontname" : "Arial",
						"gridonopen" : 0,
						"gridsize" : [ 20.0, 20.0 ],
						"gridsnaponopen" : 0,
						"toolbarvisible" : 1,
						"boxanimatetime" : 200,
						"imprint" : 0,
						"enablehscroll" : 1,
						"enablevscroll" : 1,
						"devicewidth" : 0.0,
						"boxes" : [ 							{
								"box" : 								{
									"maxclass" : "message",
									"text" : "pattern 1 0 1",
									"patching_rect" : [ 20.0, 340.0, 89.0, 21.0 ],
									"fontname" : "Arial",
									"fontsize" : 14.0,
									"numinlets" : 2,
									"numoutlets" : 1,
									"id" : "obj-19",
									"outlettype" : [ "" ]
								}

							}
, 							{
								"box" : 								{
									"maxclass" : "message",
									"text" : "scale B natural",
									"patching_rect" : [ 20.0, 300.0, 103.0, 21.0 ],
									"fontname" : "Arial",
									"fontsize" : 14.0,
									"numinlets" : 2,
									"numoutlets" : 1,
									"id" : "obj-18",
									"outlettype" : [ "" ]
								}

							}
, 							{
								"box" : 								{
									"maxclass" : "message",
									"text" : "value quarter",
									"patching_rect" : [ 20.0, 260.0, 92.0, 21.0 ],
									"fontname" : "Arial",
									"fontsize" : 14.0,
									"numinlets" : 2,
									"numoutlets" : 1,
									"id" : "obj-17",
									"outlettype" : [ "" ]
								}

							}
, 							{
								"box" : 								{
									"maxclass" : "message",
									"text" : "cell quarter",
									"patching_rect" : [ 20.0, 220.0, 80.0, 21.0 ],
									"fontname" : "Arial",
									"fontsize" : 14.0,
									"numinlets" : 2,
									"numoutlets" : 1,
									"id" : "obj-16",
									"outlettype" : [ "" ]
								}

							}
, 							{
								"box" : 								{
									"maxclass" : "message",
									"text" : "chord 1",
									"patching_rect" : [ 20.0, 180.0, 57.0, 21.0 ],
									"fontname" : "Arial",
									"fontsize" : 14.0,
									"numinlets" : 2,
									"numoutlets" : 1,
									"id" : "obj-14",
									"outlettype" : [ "" ]
								}

							}
, 							{
								"box" : 								{
									"maxclass" : "message",
									"text" : "channel 2",
									"patching_rect" : [ 20.0, 140.0, 71.0, 21.0 ],
									"fontname" : "Arial",
									"fontsize" : 14.0,
									"numinlets" : 2,
									"numoutlets" : 1,
									"id" : "obj-15",
									"outlettype" : [ "" ]
								}

							}
, 							{
								"box" : 								{
									"maxclass" : "message",
									"text" : "velocity -10",
									"patching_rect" : [ 20.0, 100.0, 81.0, 21.0 ],
									"fontname" : "Arial",
									"fontsize" : 14.0,
									"numinlets" : 2,
									"numoutlets" : 1,
									"id" : "obj-10",
									"outlettype" : [ "" ]
								}

							}
, 							{
								"box" : 								{
									"maxclass" : "message",
									"text" : "chance 50",
									"patching_rect" : [ 20.0, 60.0, 75.0, 21.0 ],
									"fontname" : "Arial",
									"fontsize" : 14.0,
									"numinlets" : 2,
									"numoutlets" : 1,
									"id" : "obj-6",
									"outlettype" : [ "" ]
								}

							}
, 							{
								"box" : 								{
									"maxclass" : "message",
									"text" : "bpm 240",
									"patching_rect" : [ 20.0, 20.0, 65.0, 21.0 ],
									"fontname" : "Arial",
									"fontsize" : 14.0,
									"numinlets" : 2,
									"numoutlets" : 1,
									"id" : "obj-4",
									"outlettype" : [ "" ]
								}

							}
, 							{
								"box" : 								{
									"maxclass" : "outlet",
									"patching_rect" : [ 20.0, 380.0, 25.0, 25.0 ],
									"numinlets" : 1,
									"numoutlets" : 0,
									"id" : "obj-20",
									"comment" : ""
								}

							}
 ],
						"lines" : [ 							{
								"patchline" : 								{
									"source" : [ "obj-4", 0 ],
									"destination" : [ "obj-20", 0 ],
									"hidden" : 0,
									"midpoints" : [  ]
								}

							}
, 							{
								"patchline" : 								{
									"source" : [ "obj-6", 0 ],
									"destination" : [ "obj-20", 0 ],
									"hidden" : 0,
									"midpoints" : [  ]
								}

							}
, 							{
								"patchline" : 								{
									"source" : [ "obj-10", 0 ],
									"destination" : [ "obj-20", 0 ],
									"hidden" : 0,
									"midpoints" : [  ]
								}

							}
, 							{
								"patchline" : 								{
									"source" : [ "obj-15", 0 ],
									"destination" : [ "obj-20", 0 ],
									"hidden" : 0,
									"midpoints" : [  ]
								}

							}
, 							{
								"patchline" : 								{
									"source" : [ "obj-14", 0 ],
									"destination" : [ "obj-20", 0 ],
									"hidden" : 0,
									"midpoints" : [  ]
								}

							}
, 							{
								"patchline" : 								{
									"source" : [ "obj-16", 0 ],
									"destination" : [ "obj-20", 0 ],
									"hidden" : 0,
									"midpoints" : [  ]
								}

							}
, 							{
								"patchline" : 								{
									"source" : [ "obj-17", 0 ],
									"destination" : [ "obj-20", 0 ],
									"hidden" : 0,
									"midpoints" : [  ]
								}

							}
, 							{
								"patchline" : 								{
									"source" : [ "obj-18", 0 ],
									"destination" : [ "obj-20", 0 ],
									"hidden" : 0,
									"midpoints" : [  ]
								}

							}
, 							{
								"patchline" : 								{
									"source" : [ "obj-19", 0 ],
									"destination" : [ "obj-20", 0 ],
									"hidden" : 0,
									"midpoints" : [  ]
								}

							}
 ]
					}
,
					"saved_object_attributes" : 					{
						"fontname" : "Arial",
						"default_fontface" : 0,
						"globalpatchername" : "",
						"default_fontname" : "Arial",
						"fontface" : 0,
						"fontsize" : 14.0,
						"default_fontsize" : 14.0
					}

				}

			}
, 			{
				"box" : 				{
					"maxclass" : "message",
					"text" : "stop",
					"patching_rect" : [ 80.0, 80.0, 37.0, 21.0 ],
					"fontname" : "Arial",
					"fontsize" : 14.0,
					"numinlets" : 2,
					"numoutlets" : 1,
					"id" : "obj-8",
					"outlettype" : [ "" ]
				}

			}
, 			{
				"box" : 				{
					"maxclass" : "message",
					"text" : "loop",
					"patching_rect" : [ 40.0, 80.0, 37.0, 21.0 ],
					"fontname" : "Arial",
					"fontsize" : 14.0,
					"numinlets" : 2,
					"numoutlets" : 1,
					"id" : "obj-5",
					"outlettype" : [ "" ]
				}

			}
, 			{
				"box" : 				{
					"maxclass" : "newobj",
					"text" : "tralala",
					"patching_rect" : [ 100.0, 200.0, 49.0, 23.0 ],
					"fontname" : "Arial",
					"fontsize" : 14.0,
					"numinlets" : 1,
					"numoutlets" : 2,
					"id" : "obj-1",
					"outlettype" : [ "list", "" ]
				}

			}
 ],
		"lines" : [ 			{
				"patchline" : 				{
					"source" : [ "obj-7", 0 ],
					"destination" : [ "obj-1", 0 ],
					"hidden" : 0,
					"midpoints" : [  ]
				}

			}
, 			{
				"patchline" : 				{
					"source" : [ "obj-21", 0 ],
					"destination" : [ "obj-1", 0 ],
					"hidden" : 0,
					"midpoints" : [  ]
				}

			}
, 			{
				"patchline" : 				{
					"source" : [ "obj-5", 0 ],
					"destination" : [ "obj-1", 0 ],
					"hidden" : 0,
					"midpoints" : [  ]
				}

			}
, 			{
				"patchline" : 				{
					"source" : [ "obj-8", 0 ],
					"destination" : [ "obj-1", 0 ],
					"hidden" : 0,
					"midpoints" : [  ]
				}

			}
 ]
	}

}
