{
	"patcher" : 	{
		"fileversion" : 1,
		"appversion" : 		{
			"major" : 5,
			"minor" : 1,
			"revision" : 9
		}
,
		"rect" : [ 572.0, 127.0, 376.0, 415.0 ],
		"bgcolor" : [ 1.0, 1.0, 1.0, 1.0 ],
		"bglocked" : 0,
		"defrect" : [ 572.0, 127.0, 376.0, 415.0 ],
		"openrect" : [ 0.0, 0.0, 0.0, 0.0 ],
		"openinpresentation" : 0,
		"default_fontsize" : 14.0,
		"default_fontface" : 0,
		"default_fontname" : "Arial",
		"gridonopen" : 0,
		"gridsize" : [ 20.0, 20.0 ],
		"gridsnaponopen" : 0,
		"toolbarvisible" : 0,
		"boxanimatetime" : 200,
		"imprint" : 1,
		"enablehscroll" : 1,
		"enablevscroll" : 1,
		"devicewidth" : 0.0,
		"boxes" : [ 			{
				"box" : 				{
					"maxclass" : "message",
					"text" : "note $1 $2",
					"patching_rect" : [ 18.0, 149.0, 77.0, 21.0 ],
					"numinlets" : 2,
					"fontname" : "Arial",
					"presentation" : 0,
					"numoutlets" : 1,
					"outlettype" : [ "" ],
					"fontface" : 0,
					"background" : 0,
					"fontsize" : 14.0,
					"gradient" : 0,
					"bgcolor" : [ 0.866667, 0.866667, 0.866667, 0.0 ],
					"presentation_rect" : [ 0.0, 0.0, 0.0, 0.0 ],
					"textcolor" : [ 0.0, 0.0, 0.0, 1.0 ],
					"ignoreclick" : 0,
					"bgcolor2" : [ 0.867, 0.867, 0.867, 1.0 ],
					"hidden" : 0,
					"id" : "obj-5"
				}

			}
, 			{
				"box" : 				{
					"maxclass" : "message",
					"text" : "transpose 2",
					"patching_rect" : [ 66.0, 283.0, 84.0, 21.0 ],
					"numinlets" : 2,
					"fontname" : "Arial",
					"presentation" : 0,
					"numoutlets" : 1,
					"outlettype" : [ "" ],
					"fontface" : 0,
					"background" : 0,
					"fontsize" : 14.0,
					"gradient" : 0,
					"bgcolor" : [ 0.866667, 0.866667, 0.866667, 0.0 ],
					"presentation_rect" : [ 0.0, 0.0, 0.0, 0.0 ],
					"textcolor" : [ 0.0, 0.0, 0.0, 1.0 ],
					"ignoreclick" : 0,
					"bgcolor2" : [ 0.867, 0.867, 0.867, 1.0 ],
					"hidden" : 0,
					"id" : "obj-2"
				}

			}
, 			{
				"box" : 				{
					"maxclass" : "message",
					"text" : "clear",
					"patching_rect" : [ 237.0, 286.0, 41.0, 21.0 ],
					"numinlets" : 2,
					"fontname" : "Arial",
					"presentation" : 0,
					"numoutlets" : 1,
					"outlettype" : [ "" ],
					"fontface" : 0,
					"background" : 0,
					"fontsize" : 14.0,
					"gradient" : 0,
					"bgcolor" : [ 0.866667, 0.866667, 0.866667, 0.0 ],
					"presentation_rect" : [ 0.0, 0.0, 0.0, 0.0 ],
					"textcolor" : [ 0.0, 0.0, 0.0, 1.0 ],
					"ignoreclick" : 0,
					"bgcolor2" : [ 0.867, 0.867, 0.867, 1.0 ],
					"hidden" : 0,
					"id" : "obj-29"
				}

			}
, 			{
				"box" : 				{
					"maxclass" : "message",
					"text" : "note 48 66 120 48",
					"patching_rect" : [ 237.0, 103.0, 123.0, 21.0 ],
					"numinlets" : 2,
					"fontname" : "Arial",
					"presentation" : 0,
					"numoutlets" : 1,
					"outlettype" : [ "" ],
					"fontface" : 0,
					"background" : 0,
					"fontsize" : 14.0,
					"gradient" : 0,
					"bgcolor" : [ 0.866667, 0.866667, 0.866667, 0.0 ],
					"presentation_rect" : [ 0.0, 0.0, 0.0, 0.0 ],
					"textcolor" : [ 0.0, 0.0, 0.0, 1.0 ],
					"ignoreclick" : 0,
					"bgcolor2" : [ 0.867, 0.867, 0.867, 1.0 ],
					"hidden" : 0,
					"id" : "obj-26"
				}

			}
, 			{
				"box" : 				{
					"maxclass" : "newobj",
					"text" : "p",
					"patching_rect" : [ 18.0, 358.0, 40.0, 23.0 ],
					"numinlets" : 1,
					"fontname" : "Arial",
					"presentation" : 0,
					"numoutlets" : 0,
					"fontface" : 0,
					"background" : 0,
					"fontsize" : 14.0,
					"color" : [ 0.827451, 0.737255, 0.835294, 1.0 ],
					"bgcolor" : [ 1.0, 1.0, 1.0, 1.0 ],
					"presentation_rect" : [ 0.0, 0.0, 0.0, 0.0 ],
					"textcolor" : [ 0.0, 0.0, 0.0, 1.0 ],
					"ignoreclick" : 0,
					"hidden" : 0,
					"id" : "obj-11",
					"patcher" : 					{
						"fileversion" : 1,
						"appversion" : 						{
							"major" : 5,
							"minor" : 1,
							"revision" : 9
						}
,
						"rect" : [ 107.0, 109.0, 295.0, 300.0 ],
						"bglocked" : 0,
						"defrect" : [ 107.0, 109.0, 295.0, 300.0 ],
						"openrect" : [ 0.0, 0.0, 0.0, 0.0 ],
						"openinpresentation" : 0,
						"default_fontsize" : 14.0,
						"default_fontface" : 0,
						"default_fontname" : "Arial",
						"gridonopen" : 0,
						"gridsize" : [ 20.0, 20.0 ],
						"gridsnaponopen" : 0,
						"toolbarvisible" : 1,
						"boxanimatetime" : 200,
						"imprint" : 0,
						"enablehscroll" : 1,
						"enablevscroll" : 1,
						"devicewidth" : 0.0,
						"boxes" : [ 							{
								"box" : 								{
									"maxclass" : "tralala",
									"patching_rect" : [ 20.0, 60.0, 250.0, 200.0 ],
									"numinlets" : 1,
									"numoutlets" : 5,
									"yoffset" : 628,
									"outlettype" : [ "list", "", "", "bang", "" ],
									"id" : "obj-1",
									"tralala" : 									{

									}

								}

							}
, 							{
								"box" : 								{
									"maxclass" : "inlet",
									"patching_rect" : [ 20.0, 20.0, 25.0, 25.0 ],
									"numinlets" : 0,
									"numoutlets" : 1,
									"outlettype" : [ "" ],
									"id" : "obj-2",
									"comment" : ""
								}

							}
 ],
						"lines" : [ 							{
								"patchline" : 								{
									"source" : [ "obj-2", 0 ],
									"destination" : [ "obj-1", 0 ],
									"hidden" : 0,
									"midpoints" : [  ]
								}

							}
 ]
					}
,
					"saved_object_attributes" : 					{
						"fontname" : "Arial",
						"default_fontface" : 0,
						"globalpatchername" : "",
						"default_fontname" : "Arial",
						"fontface" : 0,
						"fontsize" : 14.0,
						"default_fontsize" : 14.0
					}

				}

			}
, 			{
				"box" : 				{
					"maxclass" : "comment",
					"text" : "Friday 3, 2012 / 17:38",
					"frgb" : [ 0.93, 0.93, 0.97, 1.0 ],
					"patching_rect" : [ 13.0, 45.0, 227.0, 23.0 ],
					"numinlets" : 1,
					"fontname" : "Arial",
					"presentation" : 0,
					"numoutlets" : 0,
					"fontface" : 0,
					"background" : 0,
					"fontsize" : 14.0,
					"bgcolor" : [ 1.0, 1.0, 1.0, 0.0 ],
					"underline" : 0,
					"presentation_rect" : [ 0.0, 0.0, 0.0, 0.0 ],
					"textcolor" : [ 0.93, 0.93, 0.97, 1.0 ],
					"ignoreclick" : 1,
					"hidden" : 0,
					"id" : "obj-4"
				}

			}
, 			{
				"box" : 				{
					"maxclass" : "comment",
					"text" : "Messages",
					"frgb" : [ 0.93, 0.93, 0.97, 1.0 ],
					"patching_rect" : [ 13.0, 13.0, 122.0, 30.0 ],
					"numinlets" : 1,
					"fontname" : "Arial",
					"presentation" : 0,
					"numoutlets" : 0,
					"fontface" : 3,
					"background" : 0,
					"fontsize" : 20.871338,
					"bgcolor" : [ 1.0, 1.0, 1.0, 0.0 ],
					"underline" : 0,
					"presentation_rect" : [ 0.0, 0.0, 0.0, 0.0 ],
					"textcolor" : [ 0.93, 0.93, 0.97, 1.0 ],
					"ignoreclick" : 1,
					"hidden" : 0,
					"id" : "obj-14"
				}

			}
, 			{
				"box" : 				{
					"maxclass" : "panel",
					"patching_rect" : [ 10.0, 9.0, 355.0, 64.0 ],
					"numinlets" : 1,
					"mode" : 1,
					"presentation" : 0,
					"angle" : 0.0,
					"border" : 0,
					"rounded" : 8,
					"numoutlets" : 0,
					"grad1" : [ 0.188235, 0.105882, 0.266667, 1.0 ],
					"shadow" : 0,
					"bordercolor" : [ 0.0, 0.0, 0.0, 1.0 ],
					"grad2" : [ 0.858824, 0.858824, 0.858824, 1.0 ],
					"background" : 1,
					"bgcolor" : [ 0.66667, 0.66667, 0.66667, 1.0 ],
					"presentation_rect" : [ 0.0, 0.0, 0.0, 0.0 ],
					"ignoreclick" : 1,
					"hidden" : 0,
					"id" : "obj-23"
				}

			}
, 			{
				"box" : 				{
					"maxclass" : "message",
					"text" : "0 60, 0 64, 0 62, 0 66",
					"patching_rect" : [ 18.0, 103.0, 143.0, 21.0 ],
					"numinlets" : 2,
					"fontname" : "Arial",
					"presentation" : 0,
					"numoutlets" : 1,
					"outlettype" : [ "" ],
					"fontface" : 0,
					"background" : 0,
					"fontsize" : 14.0,
					"gradient" : 0,
					"bgcolor" : [ 0.866667, 0.866667, 0.866667, 0.0 ],
					"presentation_rect" : [ 0.0, 0.0, 0.0, 0.0 ],
					"textcolor" : [ 0.0, 0.0, 0.0, 1.0 ],
					"ignoreclick" : 0,
					"bgcolor2" : [ 0.867, 0.867, 0.867, 1.0 ],
					"hidden" : 0,
					"id" : "obj-1"
				}

			}
, 			{
				"box" : 				{
					"maxclass" : "message",
					"text" : "sort pitch down",
					"patching_rect" : [ 237.0, 216.0, 105.0, 21.0 ],
					"numinlets" : 2,
					"fontname" : "Arial",
					"presentation" : 0,
					"numoutlets" : 1,
					"outlettype" : [ "" ],
					"fontface" : 0,
					"background" : 0,
					"fontsize" : 14.0,
					"gradient" : 0,
					"bgcolor" : [ 0.866667, 0.866667, 0.866667, 0.0 ],
					"presentation_rect" : [ 0.0, 0.0, 0.0, 0.0 ],
					"textcolor" : [ 0.0, 0.0, 0.0, 1.0 ],
					"ignoreclick" : 0,
					"bgcolor2" : [ 0.867, 0.867, 0.867, 1.0 ],
					"hidden" : 0,
					"id" : "obj-8"
				}

			}
, 			{
				"box" : 				{
					"maxclass" : "message",
					"text" : "scramble",
					"patching_rect" : [ 146.0, 216.0, 67.0, 21.0 ],
					"numinlets" : 2,
					"fontname" : "Arial",
					"presentation" : 0,
					"numoutlets" : 1,
					"outlettype" : [ "" ],
					"fontface" : 0,
					"background" : 0,
					"fontsize" : 14.0,
					"gradient" : 0,
					"bgcolor" : [ 0.866667, 0.866667, 0.866667, 0.0 ],
					"presentation_rect" : [ 0.0, 0.0, 0.0, 0.0 ],
					"textcolor" : [ 0.0, 0.0, 0.0, 1.0 ],
					"ignoreclick" : 0,
					"bgcolor2" : [ 0.867, 0.867, 0.867, 1.0 ],
					"hidden" : 0,
					"id" : "obj-9"
				}

			}
, 			{
				"box" : 				{
					"maxclass" : "message",
					"text" : "rotate -1",
					"patching_rect" : [ 66.0, 216.0, 63.0, 21.0 ],
					"numinlets" : 2,
					"fontname" : "Arial",
					"presentation" : 0,
					"numoutlets" : 1,
					"outlettype" : [ "" ],
					"fontface" : 0,
					"background" : 0,
					"fontsize" : 14.0,
					"gradient" : 0,
					"bgcolor" : [ 0.866667, 0.866667, 0.866667, 0.0 ],
					"presentation_rect" : [ 0.0, 0.0, 0.0, 0.0 ],
					"textcolor" : [ 0.0, 0.0, 0.0, 1.0 ],
					"ignoreclick" : 0,
					"bgcolor2" : [ 0.867, 0.867, 0.867, 1.0 ],
					"hidden" : 0,
					"id" : "obj-10"
				}

			}
, 			{
				"box" : 				{
					"maxclass" : "message",
					"text" : "clean 3",
					"patching_rect" : [ 169.0, 103.0, 56.0, 21.0 ],
					"numinlets" : 2,
					"fontname" : "Arial",
					"presentation" : 0,
					"numoutlets" : 1,
					"outlettype" : [ "" ],
					"fontface" : 0,
					"background" : 0,
					"fontsize" : 14.0,
					"gradient" : 0,
					"bgcolor" : [ 0.866667, 0.866667, 0.866667, 0.0 ],
					"presentation_rect" : [ 0.0, 0.0, 0.0, 0.0 ],
					"textcolor" : [ 0.0, 0.0, 0.0, 1.0 ],
					"ignoreclick" : 0,
					"bgcolor2" : [ 0.867, 0.867, 0.867, 1.0 ],
					"hidden" : 0,
					"id" : "obj-16"
				}

			}
 ],
		"lines" : [ 			{
				"patchline" : 				{
					"source" : [ "obj-2", 0 ],
					"destination" : [ "obj-11", 0 ],
					"hidden" : 0,
					"color" : [ 0.694118, 0.694118, 0.694118, 1.0 ],
					"midpoints" : [ 75.5, 321.5, 27.5, 321.5 ]
				}

			}
, 			{
				"patchline" : 				{
					"source" : [ "obj-26", 0 ],
					"destination" : [ "obj-11", 0 ],
					"hidden" : 0,
					"color" : [ 0.694118, 0.694118, 0.694118, 1.0 ],
					"midpoints" : [ 246.5, 191.5, 27.5, 191.5 ]
				}

			}
, 			{
				"patchline" : 				{
					"source" : [ "obj-5", 0 ],
					"destination" : [ "obj-11", 0 ],
					"hidden" : 0,
					"color" : [ 0.694118, 0.694118, 0.694118, 1.0 ],
					"midpoints" : [  ]
				}

			}
, 			{
				"patchline" : 				{
					"source" : [ "obj-1", 0 ],
					"destination" : [ "obj-5", 0 ],
					"hidden" : 0,
					"color" : [ 0.694118, 0.694118, 0.694118, 1.0 ],
					"midpoints" : [  ]
				}

			}
, 			{
				"patchline" : 				{
					"source" : [ "obj-29", 0 ],
					"destination" : [ "obj-11", 0 ],
					"hidden" : 0,
					"color" : [ 0.694118, 0.694118, 0.694118, 1.0 ],
					"midpoints" : [ 246.5, 321.5, 27.5, 321.5 ]
				}

			}
, 			{
				"patchline" : 				{
					"source" : [ "obj-16", 0 ],
					"destination" : [ "obj-11", 0 ],
					"hidden" : 0,
					"color" : [ 0.694118, 0.694118, 0.694118, 1.0 ],
					"midpoints" : [ 178.5, 191.0, 27.5, 191.0 ]
				}

			}
, 			{
				"patchline" : 				{
					"source" : [ "obj-10", 0 ],
					"destination" : [ "obj-11", 0 ],
					"hidden" : 0,
					"color" : [ 0.694118, 0.694118, 0.694118, 1.0 ],
					"midpoints" : [ 75.5, 255.0, 27.5, 255.0 ]
				}

			}
, 			{
				"patchline" : 				{
					"source" : [ "obj-8", 0 ],
					"destination" : [ "obj-11", 0 ],
					"hidden" : 0,
					"color" : [ 0.694118, 0.694118, 0.694118, 1.0 ],
					"midpoints" : [ 246.5, 255.5, 27.5, 255.5 ]
				}

			}
, 			{
				"patchline" : 				{
					"source" : [ "obj-9", 0 ],
					"destination" : [ "obj-11", 0 ],
					"hidden" : 0,
					"color" : [ 0.694118, 0.694118, 0.694118, 1.0 ],
					"midpoints" : [ 155.5, 255.5, 27.5, 255.5 ]
				}

			}
 ]
	}

}
